<svg width="20" height="20" viewBox="0 0 20 20" fill="none" xmlns="http://www.w3.org/2000/svg">
<path d="M3 19.2C2.20435 19.2 1.44129 18.8839 0.87868 18.3213C0.31607 17.7587 0 16.9956 0 16.2V3C0 2.20435 0.31607 1.44129 0.87868 0.87868C1.44129 0.31607 2.20435 0 3 0H7.127C7.39222 0 7.64657 0.105357 7.83411 0.292893C8.02164 0.48043 8.127 0.734784 8.127 1C8.13025 1.27814 8.02951 1.54747 7.84453 1.7552C7.65955 1.96294 7.40366 2.09411 7.127 2.123H3.127C2.86178 2.123 2.60743 2.22836 2.41989 2.41589C2.23236 2.60343 2.127 2.85778 2.127 3.123V16.077C2.127 16.3422 2.23236 16.5966 2.41989 16.7841C2.60743 16.9716 2.86178 17.077 3.127 17.077H16C16.2652 17.077 16.5196 16.9716 16.7071 16.7841C16.8946 16.5966 17 16.3422 17 16.077V12.077C17.0421 11.7945 17.1857 11.5371 17.4041 11.3529C17.6224 11.1688 17.9005 11.0707 18.186 11.077C18.4512 11.077 18.7056 11.1824 18.8931 11.3699C19.0806 11.5574 19.186 11.8118 19.186 12.077V16.204C19.186 16.9996 18.8699 17.7627 18.3073 18.3253C17.7447 18.8879 16.9816 19.204 16.186 19.204L3 19.2ZM13.175 11.679C13.0489 11.6232 12.9417 11.5317 12.8668 11.4159C12.7918 11.3001 12.7523 11.165 12.753 11.027V8.682C12.5648 8.67223 12.3764 8.66757 12.188 8.668C10.273 8.668 6.87 9.019 5.547 11.375C5.48817 11.4827 5.40138 11.5725 5.29579 11.635C5.19019 11.6974 5.0697 11.7303 4.947 11.73C4.88652 11.7302 4.82629 11.7221 4.768 11.706C4.62066 11.6644 4.491 11.5757 4.39889 11.4535C4.30677 11.3312 4.25728 11.1821 4.258 11.029C4.3245 8.97402 5.13508 7.01313 6.539 5.511C8.20965 3.91057 10.4365 3.02142 12.75 3.031V0.71C12.7491 0.572648 12.7886 0.438067 12.8637 0.323021C12.9387 0.207974 13.0459 0.117547 13.172 0.063C13.2981 0.00992551 13.4373 -0.00415136 13.5715 0.022584C13.7057 0.0493193 13.8288 0.115641 13.925 0.213L18.98 5.373C19.1117 5.50611 19.1855 5.68578 19.1855 5.873C19.1855 6.06022 19.1117 6.23989 18.98 6.373L13.925 11.532C13.8287 11.6292 13.7057 11.6954 13.5715 11.7223C13.4374 11.7492 13.2983 11.7355 13.172 11.683L13.175 11.679ZM13.326 7.16C13.4779 7.17872 13.6175 7.25286 13.7181 7.3682C13.8187 7.48355 13.8731 7.63197 13.871 7.785V8.947L16.889 5.87L13.876 2.793V3.96C13.8757 4.12438 13.8107 4.28205 13.6951 4.39884C13.5794 4.51564 13.4224 4.58216 13.258 4.584C12.3009 4.51842 11.3405 4.64885 10.4355 4.96729C9.53057 5.28574 8.70012 5.7855 7.995 6.436C7.43307 7.02057 6.99948 7.7161 6.722 8.478C8.36198 7.51439 10.2431 7.03942 12.144 7.109C12.843 7.11 13.3 7.162 13.324 7.162L13.326 7.16Z" fill="black"/>
</svg>
