<svg width="24" height="18" viewBox="0 0 24 18" fill="none" xmlns="http://www.w3.org/2000/svg">
<path d="M19.1 17.6307H15.2432C14.9402 17.6307 14.6923 17.3828 14.6923 17.0798V15.2432C14.6923 14.9402 14.9402 14.6923 15.2432 14.6923H19.1C19.9126 14.6923 20.5692 14.0357 20.5692 13.2231V4.40769C20.5692 3.59502 19.9126 2.93846 19.1 2.93846H15.2432C14.9402 2.93846 14.6923 2.69052 14.6923 2.3875V0.550961C14.6923 0.247932 14.9402 0 15.2432 0H19.1C21.5334 0 23.5077 1.97428 23.5077 4.40769V13.2231C23.5077 15.6565 21.5334 17.6307 19.1 17.6307ZM16.942 8.40215L9.22859 0.688701C8.53989 0 7.34614 0.482091 7.34614 1.46923V5.87691H1.10192C0.491273 5.87691 0 6.36819 0 6.97883V11.3865C0 11.9972 0.491273 12.4884 1.10192 12.4884H7.34614V16.8961C7.34614 17.8833 8.53989 18.3654 9.22859 17.6767L16.942 9.9632C17.369 9.53162 17.369 8.83374 16.942 8.40215Z" fill="black"/>
</svg>
