<svg width="20" height="20" viewBox="0 0 20 20" fill="none" xmlns="http://www.w3.org/2000/svg">
<path d="M15.0686 6.34478C15.9447 6.34478 16.6548 5.63461 16.6548 4.75857C16.6548 3.88253 15.9447 3.17236 15.0686 3.17236C14.1926 3.17236 13.4824 3.88253 13.4824 4.75857C13.4824 5.63461 14.1926 6.34478 15.0686 6.34478Z" fill="black"/>
<path d="M15.069 9.51724H4.75862C2.13424 9.51724 0 7.383 0 4.75862C0 2.13424 2.13424 0 4.75862 0H15.069C17.6933 0 19.8276 2.13424 19.8276 4.75862C19.8276 7.383 17.6933 9.51724 15.069 9.51724ZM4.75862 1.58621C3.00903 1.58621 1.58621 3.00903 1.58621 4.75862C1.58621 6.50821 3.00903 7.93103 4.75862 7.93103H15.069C16.8186 7.93103 18.2414 6.50821 18.2414 4.75862C18.2414 3.00903 16.8186 1.58621 15.069 1.58621H4.75862Z" fill="black"/>
<path d="M4.75808 16.6548C5.63412 16.6548 6.34429 15.9447 6.34429 15.0686C6.34429 14.1926 5.63412 13.4824 4.75808 13.4824C3.88204 13.4824 3.17188 14.1926 3.17188 15.0686C3.17188 15.9447 3.88204 16.6548 4.75808 16.6548Z" fill="black"/>
<path d="M15.069 19.8273H4.75862C2.13424 19.8273 0 17.6931 0 15.0687C0 12.4443 2.13424 10.3101 4.75862 10.3101H15.069C17.6933 10.3101 19.8276 12.4443 19.8276 15.0687C19.8276 17.6931 17.6933 19.8273 15.069 19.8273ZM4.75862 11.8963C3.00903 11.8963 1.58621 13.3191 1.58621 15.0687C1.58621 16.8183 3.00903 18.2411 4.75862 18.2411H15.069C16.8186 18.2411 18.2414 16.8183 18.2414 15.0687C18.2414 13.3191 16.8186 11.8963 15.069 11.8963H4.75862Z" fill="black"/>
</svg>
