<svg width="23" height="18" viewBox="0 0 23 18" fill="none" xmlns="http://www.w3.org/2000/svg">
<path d="M21.9375 7.3125H19.6875V5.0625C19.6875 4.75312 19.4344 4.5 19.125 4.5H18C17.6906 4.5 17.4375 4.75312 17.4375 5.0625V7.3125H15.1875C14.8781 7.3125 14.625 7.56562 14.625 7.875V9C14.625 9.30938 14.8781 9.5625 15.1875 9.5625H17.4375V11.8125C17.4375 12.1219 17.6906 12.375 18 12.375H19.125C19.4344 12.375 19.6875 12.1219 19.6875 11.8125V9.5625H21.9375C22.2469 9.5625 22.5 9.30938 22.5 9V7.875C22.5 7.56562 22.2469 7.3125 21.9375 7.3125ZM7.875 9C10.3605 9 12.375 6.98555 12.375 4.5C12.375 2.01445 10.3605 0 7.875 0C5.38945 0 3.375 2.01445 3.375 4.5C3.375 6.98555 5.38945 9 7.875 9ZM11.025 10.125H10.4379C9.65742 10.4836 8.78906 10.6875 7.875 10.6875C6.96094 10.6875 6.09609 10.4836 5.31211 10.125H4.725C2.11641 10.125 0 12.2414 0 14.85V16.3125C0 17.2441 0.755859 18 1.6875 18H14.0625C14.9941 18 15.75 17.2441 15.75 16.3125V14.85C15.75 12.2414 13.6336 10.125 11.025 10.125Z" fill="black"/>
</svg>
