<svg width="16" height="17" viewBox="0 0 16 17" fill="none" xmlns="http://www.w3.org/2000/svg">
<path d="M12.2226 8.07291C12.2247 7.97017 12.2064 7.86871 12.1689 7.77436C12.1314 7.68002 12.0752 7.59467 12.0038 7.52323C11.9324 7.45179 11.847 7.39568 11.7527 7.35814C11.6583 7.32059 11.5569 7.30236 11.4541 7.30448L8.92831 7.35185L8.97567 4.82603C8.97911 4.61879 8.90008 4.42141 8.75597 4.2773C8.61186 4.13319 8.41448 4.05417 8.20724 4.0576C8.00001 4.06104 7.7999 4.14665 7.65093 4.29562C7.50196 4.44458 7.41635 4.6447 7.41291 4.85193L7.37655 7.37757L4.85091 7.41393C4.74819 7.41521 4.64606 7.43682 4.55042 7.47751C4.45478 7.51821 4.36752 7.57718 4.29368 7.65102C4.21983 7.72487 4.16086 7.81213 4.12017 7.90777C4.07948 8.00341 4.05787 8.10554 4.05658 8.20826C4.05446 8.311 4.0727 8.41246 4.11024 8.50681C4.14779 8.60115 4.20389 8.6865 4.27533 8.75794C4.34677 8.82938 4.43212 8.88549 4.52647 8.92303C4.62081 8.96057 4.72228 8.97881 4.82501 8.97669L7.35083 8.92932L7.30347 11.4551C7.30134 11.5579 7.31958 11.6593 7.35712 11.7537C7.39467 11.848 7.45078 11.9334 7.52221 12.0048C7.59365 12.0763 7.679 12.1324 7.77335 12.1699C7.86769 12.2075 7.96916 12.2257 8.07189 12.2236C8.17462 12.2223 8.27674 12.2007 8.37238 12.16C8.46802 12.1193 8.55528 12.0603 8.62913 11.9865C8.70298 11.9126 8.76195 11.8254 8.80264 11.7297C8.84333 11.6341 8.86494 11.532 8.86623 11.4292L8.90259 8.9036L11.4282 8.86724C11.5309 8.86596 11.6331 8.84435 11.7287 8.80366C11.8244 8.76296 11.9116 8.70399 11.9855 8.63015C12.0593 8.5563 12.1183 8.46904 12.159 8.3734C12.1997 8.27776 12.2213 8.17563 12.2226 8.07291ZM15.9203 8.01162C15.9554 6.97816 15.7845 5.95488 15.4174 5.00149C15.0504 4.0481 14.4946 3.18369 13.7825 2.4587C13.0704 1.73372 12.2163 1.16267 11.27 0.778888C10.3237 0.395103 9.30411 0.206265 8.27079 0.223392C7.23747 0.240519 6.21108 0.463268 5.25152 0.878642C4.29196 1.29402 3.41844 1.8937 2.68194 2.64269C1.94543 3.39169 1.36068 4.275 0.961816 5.24108C0.562951 6.20717 0.357953 7.23668 0.358787 8.26955C0.323705 9.30301 0.494678 10.3263 0.861728 11.2797C1.22878 12.2331 1.78456 13.0975 2.49664 13.8225C3.20871 14.5475 4.06283 15.1185 5.00914 15.5023C5.95546 15.8861 6.97502 16.0749 8.00834 16.0578C9.04167 16.0407 10.0681 15.8179 11.0276 15.4025C11.9872 14.9872 12.8607 14.3875 13.5972 13.6385C14.3337 12.8895 14.9185 12.0062 15.3173 11.0401C15.7162 10.074 15.9212 9.04449 15.9203 8.01162ZM8.03632 14.3696C6.59606 14.3943 5.20834 13.9188 4.1096 13.0243C3.01087 12.1297 2.2691 10.8713 2.01066 9.46359C1.75222 8.05585 1.99312 6.58582 2.69229 5.30395C3.39147 4.02209 4.50567 3.00769 5.84508 2.43358C7.18448 1.85948 8.66621 1.76119 10.0378 2.15546C11.4094 2.54973 12.5861 3.41217 13.3673 4.59584C14.1485 5.77951 14.4859 7.21118 14.3221 8.64693C14.1582 10.0827 13.5033 11.4337 12.4687 12.4698C11.8826 13.0598 11.189 13.5315 10.4282 13.8576C9.66739 14.1837 8.85441 14.3577 8.03632 14.3696Z" fill="white"/>
</svg>
