<svg width="39" height="39" viewBox="0 0 39 39" fill="none" xmlns="http://www.w3.org/2000/svg">
<path d="M19.5 0C8.72782 0 0 8.72782 0 19.5C0 30.2722 8.72782 39 19.5 39C30.2722 39 39 30.2722 39 19.5C39 8.72782 30.2722 0 19.5 0ZM19.5 35.2258C10.8115 35.2258 3.77419 28.1885 3.77419 19.5C3.77419 10.8115 10.8115 3.77419 19.5 3.77419C28.1885 3.77419 35.2258 10.8115 35.2258 19.5C35.2258 28.1885 28.1885 35.2258 19.5 35.2258ZM27.5044 14.6093L22.6137 19.5L27.5044 24.3907C27.874 24.7603 27.874 25.3579 27.5044 25.7274L25.7274 27.5044C25.3579 27.874 24.7603 27.874 24.3907 27.5044L19.5 22.6137L14.6093 27.5044C14.2397 27.874 13.6421 27.874 13.2726 27.5044L11.4956 25.7274C11.126 25.3579 11.126 24.7603 11.4956 24.3907L16.3863 19.5L11.4956 14.6093C11.126 14.2397 11.126 13.6421 11.4956 13.2726L13.2726 11.4956C13.6421 11.126 14.2397 11.126 14.6093 11.4956L19.5 16.3863L24.3907 11.4956C24.7603 11.126 25.3579 11.126 25.7274 11.4956L27.5044 13.2726C27.874 13.6421 27.874 14.2397 27.5044 14.6093Z" fill="black"/>
</svg>
