<svg width="22" height="22" viewBox="0 0 22 22" fill="none" xmlns="http://www.w3.org/2000/svg">
<path d="M11.6517 12.1L9.12114 14.619C9.01801 14.7213 8.93616 14.843 8.8803 14.977C8.82445 15.111 8.79569 15.2548 8.79569 15.4C8.79569 15.5452 8.82445 15.689 8.8803 15.8231C8.93616 15.9571 9.01801 16.0788 9.12114 16.181C9.22342 16.2841 9.34511 16.366 9.47919 16.4218C9.61327 16.4777 9.75708 16.5064 9.90232 16.5064C10.0476 16.5064 10.1914 16.4777 10.3255 16.4218C10.4595 16.366 10.5812 16.2841 10.6835 16.181L15.0845 11.7811C15.1847 11.6764 15.2632 11.5531 15.3156 11.4181C15.4256 11.1502 15.4256 10.8499 15.3156 10.5821C15.2632 10.447 15.1847 10.3237 15.0845 10.2191L10.6835 5.81908C10.5809 5.71652 10.4591 5.63516 10.3251 5.57966C10.1911 5.52415 10.0474 5.49558 9.90232 5.49558C9.75725 5.49558 9.61359 5.52415 9.47955 5.57966C9.34551 5.63516 9.22373 5.71652 9.12114 5.81908C9.01855 5.92164 8.93718 6.0434 8.88166 6.1774C8.82614 6.31141 8.79756 6.45503 8.79756 6.60008C8.79756 6.74512 8.82614 6.88875 8.88166 7.02275C8.93718 7.15675 9.01855 7.27851 9.12114 7.38107L11.6517 9.90006H1.10026C0.808452 9.90006 0.528597 10.016 0.322258 10.2222C0.11592 10.4285 0 10.7083 0 11.0001C0 11.2918 0.11592 11.5716 0.322258 11.7779C0.528597 11.9842 0.808452 12.1 1.10026 12.1H11.6517ZM11.0026 0.000109662C8.9463 -0.00906846 6.9286 0.558041 5.17833 1.63711C3.42807 2.71618 2.01529 4.26403 1.10026 6.10508C0.968945 6.36764 0.947338 6.6716 1.04019 6.95009C1.13304 7.22858 1.33275 7.45879 1.59537 7.59007C1.858 7.72135 2.16203 7.74295 2.44059 7.65013C2.71915 7.55729 2.94941 7.35764 3.08072 7.09507C3.7763 5.69073 4.83435 4.49757 6.14555 3.63888C7.45674 2.78019 8.97351 2.28713 10.5391 2.21065C12.1047 2.13417 13.6623 2.47705 15.051 3.20385C16.4397 3.93066 17.609 5.01502 18.4382 6.34487C19.2674 7.67473 19.7264 9.20184 19.7677 10.7684C19.809 12.3349 19.4311 13.8841 18.673 15.2557C17.915 16.6274 16.8044 17.7718 15.4559 18.5707C14.1074 19.3696 12.57 19.794 11.0026 19.8C9.36197 19.8071 7.75259 19.3516 6.35915 18.4858C4.96572 17.62 3.84469 16.3789 3.12473 14.905C2.99342 14.6425 2.76316 14.4428 2.4846 14.35C2.20604 14.2572 1.90201 14.2788 1.63938 14.41C1.37676 14.5413 1.17705 14.7715 1.0842 15.05C0.991349 15.3285 1.01296 15.6325 1.14427 15.895C2.01658 17.6501 3.34206 19.1403 4.98359 20.2115C6.62512 21.2826 8.52309 21.8959 10.4812 21.9879C12.4393 22.0798 14.3864 21.6471 16.1211 20.7345C17.8559 19.8218 19.3152 18.4624 20.3483 16.7968C21.3813 15.1313 21.9505 13.22 21.9969 11.2608C22.0434 9.30152 21.5654 7.36544 20.6125 5.6528C19.6596 3.94015 18.2663 2.51312 16.5768 1.51932C14.8873 0.525516 12.9628 0.00102976 11.0026 0.000109662Z" fill="black"/>
</svg>
